HIERARCHY
ROOT Haolin_28_06:Solving:Hips
{
	OFFSET 0.000000 0.000000 0.000000
	CHANNELS 6 Xposition Yposition Zposition Xrotation Yrotation Zrotation
	JOINT Haolin_28_06:Solving:Spine
	{
		OFFSET 0.000000 -12.181966 2.015561
		CHANNELS 6 Xposition Yposition Zposition Xrotation Yrotation Zrotation
		JOINT Haolin_28_06:Solving:Spine1
		{
			OFFSET 0.000000 -8.890296 1.567602
			CHANNELS 6 Xposition Yposition Zposition Xrotation Yrotation Zrotation
			JOINT Haolin_28_06:Solving:Spine2
			{
				OFFSET 0.000000 -8.993092 0.786796
				CHANNELS 6 Xposition Yposition Zposition Xrotation Yrotation Zrotation
				JOINT Haolin_28_06:Solving:Spine3
				{
					OFFSET 0.000000 -9.027443 0.000000
					CHANNELS 6 Xposition Yposition Zposition Xrotation Yrotation Zrotation
					JOINT Haolin_28_06:Solving:Neck
					{
						OFFSET 0.000000 -11.606712 -1.160669
						CHANNELS 6 Xposition Yposition Zposition Xrotation Yrotation Zrotation
						JOINT Haolin_28_06:Solving:Neck1
						{
							OFFSET 0.000000 -7.471592 -0.653680
							CHANNELS 6 Xposition Yposition Zposition Xrotation Yrotation Zrotation
							JOINT Haolin_28_06:Solving:Head
							{
								OFFSET 0.000000 -7.386181 -1.302382
								CHANNELS 6 Xposition Yposition Zposition Xrotation Yrotation Zrotation
								JOINT Haolin_28_06:Solving:HeadEnd
								{
									OFFSET 0.000000 -9.728081 0.000002
									CHANNELS 6 Xposition Yposition Zposition Xrotation Yrotation Zrotation
									End Site
									{
										OFFSET 0.000000 -9.728081 0.000002
									}
								}
							}
						}
					}
					JOINT Haolin_28_06:Solving:RightShoulder
					{
						OFFSET 0.000000 -8.290508 -5.270916
						CHANNELS 6 Xposition Yposition Zposition Xrotation Yrotation Zrotation
						JOINT Haolin_28_06:Solving:RightArm
						{
							OFFSET -19.261074 -0.000008 0.000000
							CHANNELS 6 Xposition Yposition Zposition Xrotation Yrotation Zrotation
							JOINT Haolin_28_06:Solving:RightForeArm
							{
								OFFSET -30.691700 -0.000011 0.000000
								CHANNELS 6 Xposition Yposition Zposition Xrotation Yrotation Zrotation
								JOINT Haolin_28_06:Solving:RightHand
								{
									OFFSET -20.216934 -0.000008 0.000000
									CHANNELS 6 Xposition Yposition Zposition Xrotation Yrotation Zrotation
									JOINT Haolin_28_06:Solving:RightHandThumb1
									{
										OFFSET -4.948814 2.881329 -3.679893
										CHANNELS 6 Xposition Yposition Zposition Xrotation Yrotation Zrotation
										End Site
										{
											OFFSET -7.039886 -0.000004 -7.104978
										}
									}
									JOINT Haolin_28_06:Solving:RightHandMiddle1
									{
										OFFSET -13.196846 -0.000004 0.084595
										CHANNELS 6 Xposition Yposition Zposition Xrotation Yrotation Zrotation
										End Site
										{
											OFFSET -10.002037 -0.000004 0.000000
										}
									}
								}
							}
						}
					}
					JOINT Haolin_28_06:Solving:LeftShoulder
					{
						OFFSET 0.000000 -8.290508 -5.270916
						CHANNELS 6 Xposition Yposition Zposition Xrotation Yrotation Zrotation
						JOINT Haolin_28_06:Solving:LeftArm
						{
							OFFSET 19.261074 -0.000008 0.000000
							CHANNELS 6 Xposition Yposition Zposition Xrotation Yrotation Zrotation
							JOINT Haolin_28_06:Solving:LeftForeArm
							{
								OFFSET 30.691700 -0.000011 0.000000
								CHANNELS 6 Xposition Yposition Zposition Xrotation Yrotation Zrotation
								JOINT Haolin_28_06:Solving:LeftHand
								{
									OFFSET 20.216934 -0.000008 0.000000
									CHANNELS 6 Xposition Yposition Zposition Xrotation Yrotation Zrotation
									JOINT Haolin_28_06:Solving:LeftHandThumb1
									{
										OFFSET 4.948814 2.881329 -3.679893
										CHANNELS 6 Xposition Yposition Zposition Xrotation Yrotation Zrotation
										End Site
										{
											OFFSET 7.039886 -0.000004 -7.104978
										}
									}
									JOINT Haolin_28_06:Solving:LeftHandMiddle1
									{
										OFFSET 13.196846 -0.000004 0.084595
										CHANNELS 6 Xposition Yposition Zposition Xrotation Yrotation Zrotation
										End Site
										{
											OFFSET 10.002037 -0.000004 0.000000
										}
									}
								}
							}
						}
					}
				}
			}
		}
	}
	JOINT Haolin_28_06:Solving:RightUpLeg
	{
		OFFSET -10.083070 0.000000 0.000000
		CHANNELS 6 Xposition Yposition Zposition Xrotation Yrotation Zrotation
		JOINT Haolin_28_06:Solving:RightLeg
		{
			OFFSET 0.000000 47.042522 -0.000008
			CHANNELS 6 Xposition Yposition Zposition Xrotation Yrotation Zrotation
			JOINT Haolin_28_06:Solving:RightFoot
			{
				OFFSET 0.000000 38.766415 -0.000006
				CHANNELS 6 Xposition Yposition Zposition Xrotation Yrotation Zrotation
				JOINT Haolin_28_06:Solving:RightForeFoot
				{
					OFFSET 0.000000 3.531212 -0.000000
					CHANNELS 6 Xposition Yposition Zposition Xrotation Yrotation Zrotation
					JOINT Haolin_28_06:Solving:RightToeBase
					{
						OFFSET 0.000000 0.000000 -13.829352
						CHANNELS 6 Xposition Yposition Zposition Xrotation Yrotation Zrotation
						JOINT Haolin_28_06:Solving:RightToeBaseEnd
						{
							OFFSET 0.000000 0.000000 -4.034167
							CHANNELS 6 Xposition Yposition Zposition Xrotation Yrotation Zrotation
							End Site
							{
								OFFSET 0.000000 -4.034164 0.000004
							}
						}
					}
				}
			}
		}
	}
	JOINT Haolin_28_06:Solving:LeftUpLeg
	{
		OFFSET 10.083070 0.000000 0.000000
		CHANNELS 6 Xposition Yposition Zposition Xrotation Yrotation Zrotation
		JOINT Haolin_28_06:Solving:LeftLeg
		{
			OFFSET 0.000000 47.042522 -0.000008
			CHANNELS 6 Xposition Yposition Zposition Xrotation Yrotation Zrotation
			JOINT Haolin_28_06:Solving:LeftFoot
			{
				OFFSET 0.000000 38.766415 -0.000006
				CHANNELS 6 Xposition Yposition Zposition Xrotation Yrotation Zrotation
				JOINT Haolin_28_06:Solving:LeftForeFoot
				{
					OFFSET 0.000000 3.531212 -0.000000
					CHANNELS 6 Xposition Yposition Zposition Xrotation Yrotation Zrotation
					JOINT Haolin_28_06:Solving:LeftToeBase
					{
						OFFSET 0.000000 0.000000 -13.829352
						CHANNELS 6 Xposition Yposition Zposition Xrotation Yrotation Zrotation
						JOINT Haolin_28_06:Solving:LeftToeBaseEnd
						{
							OFFSET 0.000000 0.000000 -4.855067
							CHANNELS 6 Xposition Yposition Zposition Xrotation Yrotation Zrotation
							End Site
							{
								OFFSET 0.000000 -4.855064 0.000004
							}
						}
					}
				}
			}
		}
	}
}
MOTION
Frames: 4
Frame Time: 0.041667
-11.327226 45.335346 -94.334152 81.373419 14.047431 1.812182 0.000001 -12.181982 2.015559 15.181666 -0.428101 -3.830689 0.000000 -8.890304 1.567601 0.109216 0.032515 -0.833436 -0.000002 -8.993099 0.786796 -0.519053 -2.604653 0.181110 0.000001 -9.027429 -0.000008 1.305717 -1.395724 2.860095 0.000005 -11.606740 -1.160671 -6.507012 6.345263 -0.974929 -0.000000 -7.471549 -0.653680 -0.669416 10.529666 -1.692295 -0.000000 -7.386204 -1.302379 4.890594 1.178302 -3.617099 0.000002 -9.728134 0.000005 -0.000000 0.000005 0.000001 0.000003 -8.290524 -5.270918 -0.000008 18.900785 6.882759 -19.261074 0.000003 0.000002 -14.682378 -55.355756 -97.463405 -30.691698 -0.000002 0.000005 -20.350429 -10.491785 -3.863946 -20.216911 -0.000013 0.000003 0.820753 -6.989349 6.714490 -4.948783 2.881325 -3.679887 -0.000004 0.000002 0.000001 -13.196839 -0.000017 0.084593 -0.000001 0.000000 -0.000002 0.000003 -8.290535 -5.270920 -0.000005 -12.746583 -3.742837 19.261080 -0.000013 -0.000001 -8.971775 35.109273 91.608457 30.691711 -0.000019 -0.000009 6.698040 14.652697 -1.701590 20.216930 -0.000026 0.000001 0.027476 -1.688796 0.932171 4.948827 2.881330 -3.679894 -0.000001 0.000000 -0.000003 13.196881 -0.000009 0.084584 0.000002 0.000000 -0.000003 -10.083072 -0.000023 -0.000003 14.271492 6.747160 0.506775 -0.000004 47.042522 -0.000015 -4.648092 0.000004 -0.000000 0.000002 38.766392 0.000008 7.697451 7.066918 -3.314985 -0.000002 3.531212 0.000003 -0.000001 0.000001 0.000001 0.000003 -0.000003 -13.829355 -8.407638 0.000003 0.000001 -0.000003 -0.000008 -4.034177 -0.000000 -0.000003 0.000000 10.083070 -0.000005 0.000009 10.456974 -16.158747 -4.176365 0.000000 47.042530 0.000000 2.642263 -0.000000 0.000000 -0.000003 38.766418 0.000002 5.532583 -7.322232 9.756881 0.000000 3.531219 0.000004 0.000000 -0.000001 -0.000000 -0.000001 0.000010 -13.829355 2.374018 0.000001 -0.000000 -0.000002 -0.000000 -4.855060 -0.000001 0.000001 -0.000000 
-11.296525 45.347382 -94.343307 81.295883 13.905772 1.811424 -0.000001 -12.181926 2.015577 15.236515 -0.421104 -3.826735 0.000001 -8.890291 1.567600 0.158123 0.032944 -0.831028 -0.000002 -8.993086 0.786787 -0.487813 -2.540207 0.174962 0.000003 -9.027435 -0.000004 1.287024 -1.372558 2.806926 -0.000001 -11.606756 -1.160695 -6.499548 6.442101 -0.948373 -0.000001 -7.471611 -0.653677 -0.681067 10.770541 -1.632941 -0.000001 -7.386198 -1.302378 4.874926 1.189608 -3.575574 -0.000006 -9.728104 -0.000006 0.000000 -0.000004 0.000000 -0.000001 -8.290524 -5.270942 -0.000010 19.041632 6.999567 -19.261074 0.000012 0.000002 -14.777546 -54.084819 -97.748750 -30.691725 -0.000031 0.000000 -19.079701 -10.738199 -3.687365 -20.216900 -0.000011 0.000001 1.112234 -7.250434 8.745356 -4.948807 2.881323 -3.679891 -0.000004 0.000007 0.000000 -13.196862 -0.000019 0.084578 -0.000002 0.000001 -0.000001 -0.000001 -8.290520 -5.270942 -0.000004 -12.743401 -3.734467 19.261084 -0.000025 0.000000 -9.453037 34.479174 92.801719 30.691704 -0.000013 -0.000002 11.490087 15.276107 -3.065615 20.216946 -0.000019 0.000007 -0.063279 -2.417017 -1.499889 4.948814 2.881321 -3.679880 -0.000007 0.000005 -0.000000 13.196860 -0.000017 0.084596 -0.000013 -0.000002 -0.000001 -10.083075 0.000031 0.000014 14.352524 6.974836 0.505985 0.000003 47.042534 -0.000015 -4.616872 0.000000 0.000000 -0.000000 38.766434 0.000002 7.701346 7.000740 -3.276440 -0.000001 3.531212 -0.000002 -0.000001 0.000002 0.000000 0.000006 -0.000003 -13.829352 -8.452053 -0.000005 0.000000 -0.000007 0.000000 -4.034169 0.000000 -0.000002 -0.000000 10.083068 0.000028 0.000016 10.523164 -15.991425 -4.161980 0.000002 47.042500 -0.000012 2.651282 0.000000 -0.000000 -0.000005 38.766426 -0.000002 5.553646 -7.368282 9.681452 -0.000001 3.531212 -0.000018 -0.000000 0.000002 -0.000000 -0.000005 0.000024 -13.829371 2.409826 0.000003 0.000000 -0.000004 0.000001 -4.855059 0.000002 0.000004 -0.000001 
-11.251975 45.347374 -94.353004 81.212199 13.765219 1.783508 0.000001 -12.181930 2.015537 15.334516 -0.446647 -3.803824 -0.000000 -8.890294 1.567585 0.218654 0.031562 -0.820808 0.000000 -8.993097 0.786794 -0.495938 -2.438778 0.165844 0.000001 -9.027437 -0.000003 1.235545 -1.342188 2.762844 -0.000004 -11.606708 -1.160681 -6.476659 6.540984 -0.919155 0.000003 -7.471606 -0.653683 -0.679852 10.987273 -1.586578 0.000003 -7.386175 -1.302377 4.866908 1.198829 -3.533755 0.000006 -9.728119 0.000000 -0.000001 -0.000000 -0.000001 -0.000001 -8.290524 -5.270929 -0.000011 19.205799 7.029700 -19.261078 -0.000022 0.000004 -14.418755 -52.865210 -97.355577 -30.691736 -0.000015 0.000007 -16.441455 -11.316070 -3.314027 -20.216898 -0.000012 0.000004 1.303810 -7.688265 9.654946 -4.948800 2.881328 -3.679880 -0.000003 0.000003 -0.000000 -13.196846 -0.000007 0.084603 0.000001 0.000002 0.000000 -0.000002 -8.290520 -5.270929 -0.000005 -12.729773 -3.900836 19.261078 0.000032 -0.000009 -9.770039 31.628560 93.427419 30.691692 -0.000024 -0.000001 19.880512 15.107844 -5.384151 20.216925 -0.000015 0.000008 -0.069908 -2.361927 -1.695801 4.948802 2.881319 -3.679867 -0.000005 -0.000002 0.000004 13.196816 -0.000016 0.084609 0.000001 -0.000001 0.000001 -10.083065 0.000023 -0.000021 14.481823 7.021429 0.532409 0.000004 47.042522 -0.000019 -4.704782 -0.000000 0.000000 0.000004 38.766418 0.000004 7.776508 7.094523 -3.190654 -0.000005 3.531204 0.000003 -0.000003 0.000001 -0.000000 0.000003 0.000004 -13.829348 -8.531795 0.000000 -0.000000 -0.000001 0.000000 -4.034167 0.000000 0.000002 -0.000000 10.083069 0.000038 -0.000020 10.590237 -15.775898 -4.110769 0.000001 47.042522 -0.000011 2.678100 0.000000 -0.000000 -0.000006 38.766426 -0.000001 5.599422 -7.488363 9.588028 -0.000000 3.531219 -0.000005 -0.000000 0.000001 0.000000 0.000000 0.000008 -13.829361 2.365469 0.000001 -0.000000 -0.000003 -0.000008 -4.855058 -0.000001 0.000001 -0.000000 
-11.213705 45.345528 -94.361710 81.126897 13.712937 1.807321 0.000001 -12.181973 2.015538 15.461238 -0.481607 -3.792072 -0.000000 -8.890300 1.567600 0.258202 0.034747 -0.844979 -0.000002 -8.993094 0.786803 -0.530993 -2.384750 0.138189 0.000001 -9.027432 -0.000001 1.179983 -1.328170 2.739346 0.000000 -11.606730 -1.160678 -6.399368 6.613136 -0.877002 -0.000001 -7.471620 -0.653684 -0.688084 11.180924 -1.536728 0.000001 -7.386251 -1.302389 4.845197 1.208448 -3.500151 -0.000004 -9.728096 0.000003 0.000002 -0.000003 -0.000001 0.000001 -8.290546 -5.270924 -0.000007 19.353449 7.075154 -19.261076 -0.000032 0.000006 -13.901792 -52.133973 -96.649492 -30.691715 -0.000023 -0.000006 -14.211567 -11.996053 -3.013117 -20.216915 -0.000007 -0.000003 1.457002 -8.404959 9.871243 -4.948799 2.881312 -3.679884 -0.000000 0.000002 0.000000 -13.196855 -0.000013 0.084592 -0.000000 -0.000001 -0.000001 0.000001 -8.290543 -5.270925 -0.000006 -12.795389 -3.950832 19.261074 -0.000000 -0.000010 -10.061880 31.008164 93.359281 30.691685 -0.000010 0.000008 25.287452 14.889307 -6.921384 20.216936 -0.000006 -0.000005 -0.005872 -0.729453 -0.461040 4.948807 2.881318 -3.679893 0.000001 0.000007 -0.000009 13.196830 -0.000016 0.084581 -0.000004 -0.000002 -0.000001 -10.083067 -0.000011 -0.000024 14.564473 7.138743 0.522984 -0.000002 47.042545 -0.000010 -4.715420 0.000003 -0.000000 0.000000 38.766411 -0.000003 7.839462 7.030177 -3.120349 -0.000004 3.531227 -0.000005 -0.000000 -0.000003 0.000000 0.000002 0.000005 -13.829362 -8.643037 -0.000003 0.000000 -0.000001 -0.000008 -4.034178 -0.000000 0.000002 -0.000000 10.083069 0.000002 -0.000020 10.657709 -15.724383 -4.101757 -0.000001 47.042526 -0.000006 2.698519 -0.000000 0.000000 -0.000006 38.766418 -0.000005 5.602224 -7.490180 9.573326 -0.000001 3.531219 -0.000002 -0.000000 0.000000 -0.000000 -0.000002 0.000002 -13.829355 2.352156 0.000002 0.000000 -0.000001 -0.000008 -4.855062 0.000000 0.000001 -0.000000 
